<svg version="1.2" xmlns="http://www.w3.org/2000/svg" viewBox="0 0 584 549" width="584" height="549"><style>tspan{white-space:pre}.A{fill-opacity:.3;fill:#017f00}.B{fill:#017f00}.C{font-size: 125px;fill: #0e690d;font-weight: 400;font-family: "Caveat-Regular", "Caveat"}</style><ellipse class="A" cx="292" cy="274.5" rx="292" ry="274.5"/><path class="B" d="m459.6 168.3c0.2 0.7-1.1 6.3-3 12.5-3 9.5-3.8 14-5.1 29.9-2.5 30-5.1 39-15 51.2-14.8 18.3-35.7 29.8-61.7 34.1-6.7 1.1-13.1 2.7-14.4 3.5-9 5.8-23.8 41.4-37.7 90-8.2 28.5-12.3 47.6-17.1 79.5-7.2 47.2-8.2 51.3-13.4 52.8-3.5 0.9-19.9 0.9-23.3 0-1.5-0.4-3-1.6-3.4-2.5-1.1-2.9-5.3-21.4-9.1-40.3-3.4-17-14-60.8-18.8-78-18.9-67.2-29.3-96.5-44.4-126-17.9-34.7-34.8-59.1-64-92-6.2-6.9-5.5-8.3 2.7-5.5 12.6 4.2 33.5 19.6 48.2 35.7 26.8 29.1 40 48.1 50 71.8 14.6 34.8 20.7 53.9 35 109.5 9.2 35.5 13.6 49.8 15.2 49.2 1.3-0.4 8.6-21.5 16.7-48.2 4.8-15.6 12-36.4 21.8-62.5 10.1-26.9 25.1-57.1 36.6-74 11.1-16.1 13.1-18.7 19-25 6.3-6.6 11.6-13.2 11.6-14.3 0-3.2-15.5 2.9-23.2 9.1-15.1 12.1-32.8 34.5-38.9 49.2-1.2 3-2.6 5.9-3 6.4-1.7 1.9-3.2-5.3-3.3-15.4-0.1-26.5 14.1-55.7 34.4-70.8 14.3-10.6 19.4-12.5 51.5-18.8 12.6-2.5 29.5-6.3 37.5-8.4 16.3-4.3 17.9-4.5 18.6-2.7z"/><text style="transform:matrix(1,0,0,1,-114,86)" ><tspan x="194.6" y="75.1" class="C"></tspan><tspan  y="75.1" class="C">
</tspan></text></svg>